<svg xmlns="http://www.w3.org/2000/svg" viewBox="0 0 900 520" fill="none">
  <defs>
    <linearGradient id="bg" x1="0" y1="0" x2="1" y2="1">
      <stop offset="0" stop-color="#17365f"/>
      <stop offset="1" stop-color="#0f233f"/>
    </linearGradient>
    <linearGradient id="edge" x1="0" y1="0" x2="1" y2="0">
      <stop offset="0" stop-color="#6da8ff" stop-opacity="0.8"/>
      <stop offset="1" stop-color="#4fd1c5" stop-opacity="0.9"/>
    </linearGradient>
  </defs>
  <rect width="900" height="520" fill="none"/>
  <!-- silueta CZ + SK -->
  <path
    d="M48 285l48-42 62-12 58-44 82-30 70 18 56-32 86-12 46 18 60 10 64-28 70 18 62 38 34 46-18 48-68 36-82 4-74 40-102-12-78 16-90-16-76 10-66-10-60 12-44-10-32-52z"
    fill="url(#bg)"
    opacity="0.95"
  />
  <!-- světlejší obrys -->
  <path
    d="M48 285l48-42 62-12 58-44 82-30 70 18 56-32 86-12 46 18 60 10 64-28 70 18 62 38 34 46-18 48-68 36-82 4-74 40-102-12-78 16-90-16-76 10-66-10-60 12-44-10-32-52z"
    stroke="url(#edge)"
    stroke-width="5"
    fill="none"
    opacity="0.9"
  />
  <!-- vnitřní jemný světelný okraj -->
  <path
    d="M64 286l42-36 60-12 58-42 78-28 70 16 54-30 80-12 46 16 58 10 62-26 66 18 58 34 32 44-16 42-64 34-78 2-72 38-96-10-76 14-86-14-72 10-62-8-58 10-40-8-30-46z"
    stroke="#8bd5ff"
    stroke-width="1.5"
    opacity="0.5"
  />
</svg>
