<svg xmlns="http://www.w3.org/2000/svg" viewBox="0 0 800 450" fill="none">
  <defs>
    <linearGradient id="g" x1="0" y1="0" x2="1" y2="1">
      <stop offset="0" stop-color="#1b2738"/>
      <stop offset="1" stop-color="#0f1724"/>
    </linearGradient>
  </defs>
  <rect width="800" height="450" fill="url(#g)" />
  <path d="M84 240l44-30 50-12 58-44 70-24 68 14 46-30 70-10 44 18 48 8 50-22 56 12 50 28 28 36-14 40-62 30-72 2-66 34-90-10-70 14-76-14-62 4-60-12-42 6-52-10-30-44z" fill="#0d2135" opacity="0.9"/>
  <path d="M90 244l48-26 48-10 58-42 68-24 66 12 48-28 70-8 42 18 50 8 50-20 52 12 48 26 26 34-12 36-58 28-70 2-64 32-86-10-70 12-74-12-60 4-58-12-42 6-50-8-28-40z" fill="#132b44" opacity="0.9"/>
  <path d="M118 260l40-20 52-12 60-30 74-18 62 10 48-22 64-6 40 14 50 6 46-14 48 10 42 18 18 26-8 26-44 18-56 4-58 24-78-6-64 8-70-10-62 6-50-6-46 10-36-8-24-28z" fill="#1c3651" opacity="0.9"/>
</svg>
