<svg width="220" height="52" viewBox="0 0 220 52" fill="none" xmlns="http://www.w3.org/2000/svg">
  <rect width="220" height="52" fill="transparent"/>
  <path d="M12.96 37V14.6H16.992L17.344 17.608C18.16 15.432 19.952 14.248 22.384 14.248C24.944 14.248 26.544 15.592 27.36 18.056C28.304 15.624 30.288 14.248 32.976 14.248C37.008 14.248 39.376 16.744 39.376 21.16V37H35.024V22.136C35.024 19.416 33.776 17.928 31.44 17.928C28.944 17.928 27.568 19.608 27.568 22.52V37H23.248V22.136C23.248 19.416 22.032 17.928 19.696 17.928C17.2 17.928 15.824 19.608 15.824 22.52V37H12.96Z" fill="#101114"/>
  <path d="M50.588 37.352C44.828 37.352 41.052 33.32 41.052 27.928C41.052 22.536 44.828 18.536 50.588 18.536C56.348 18.536 60.124 22.536 60.124 27.928C60.124 33.32 56.348 37.352 50.588 37.352ZM50.588 34.056C54.46 34.056 56.924 31.24 56.924 27.928C56.924 24.616 54.46 21.832 50.588 21.832C46.684 21.832 44.252 24.616 44.252 27.928C44.252 31.24 46.684 34.056 50.588 34.056Z" fill="#101114"/>
  <path d="M68.4813 37V14.248H71.3453V17.352C72.4813 15.176 74.6573 14.248 77.0893 14.248C82.3693 14.248 85.8413 18.344 85.8413 23.64V37H82.9453V24.232C82.9453 20.584 80.9933 17.928 77.3453 17.928C73.6653 17.928 71.3453 20.52 71.3453 24.392V37H68.4813Z" fill="#101114"/>
  <path d="M97.3931 37.352C91.6331 37.352 87.8571 33.32 87.8571 27.928C87.8571 22.536 91.6331 18.536 97.3931 18.536C103.153 18.536 106.929 22.536 106.929 27.928C106.929 33.32 103.153 37.352 97.3931 37.352ZM97.3931 34.056C101.265 34.056 103.729 31.24 103.729 27.928C103.729 24.616 101.265 21.832 97.3931 21.832C93.4891 21.832 91.0571 24.616 91.0571 27.928C91.0571 31.24 93.4891 34.056 97.3931 34.056Z" fill="#101114"/>
  <path d="M116.65 37.352C110.89 37.352 107.114 33.32 107.114 27.928C107.114 22.536 110.89 18.536 116.65 18.536C122.41 18.536 126.186 22.536 126.186 27.928C126.186 33.32 122.41 37.352 116.65 37.352ZM116.65 34.056C120.522 34.056 122.986 31.24 122.986 27.928C122.986 24.616 120.522 21.832 116.65 21.832C112.746 21.832 110.314 24.616 110.314 27.928C110.314 31.24 112.746 34.056 116.65 34.056Z" fill="#101114"/>
  <path d="M171 12L183 19L171 26L159 19L171 12Z" fill="#26C3E7"/>
  <path d="M182 22L194 29L182 36L170 29L182 22Z" fill="#26C3E7"/>
  <path d="M170 32L182 39L170 46L158 39L170 32Z" fill="#26C3E7"/>
</svg>

